<?xml version="1.0"?>
<svg xmlns="http://www.w3.org/2000/svg" height="512px" viewBox="0 0 512.00003 512.00003" width="512px" class=""><g><path d="m503.464844 93.867188v256c0 18.851562-15.28125 34.132812-34.132813 34.132812h-426.664062c-18.851563 0-34.132813-15.28125-34.132813-34.132812v-256zm0 0" fill="#9d9d9d" data-original="#9D9D9D" class=""/><path d="m477.867188 93.867188v256c0 18.851562-15.28125 34.132812-34.132813 34.132812h-401.066406c-18.851563 0-34.132813-15.28125-34.132813-34.132812v-256zm0 0" fill="#ced7db" data-original="#CED7DB" class=""/><path d="m419.667969 347.5625-29.609375 17.066406-44.289063 25.601563-44.371093 25.597656-4.011719 2.304687-32.851563 17.066407-28.929687-12.03125-12.03125-5.035157 6.824219-59.734374 41.558593-24.0625v-.085938l.085938-.085938 31.0625-17.832031 44.285156-25.601562 21.335937-12.289063 8.277344-4.777344c8.15625-4.675781 18.558594-1.894531 23.292969 6.230469l25.601563 44.371094c4.703124 8.15625 1.917968 18.578125-6.230469 23.296875zm0 0" fill="#f47c00" data-original="#F47C00" class=""/><path d="m384 339.03125-29.609375 17.066406-44.289063 25.597656-44.375 25.601563-4.007812 2.304687-26.113281 13.566407-12.03125-5.035157 6.824219-59.734374 41.558593-24.0625v-.085938l.085938-.085938 31.0625-17.832031 44.285156-25.601562 21.335937-12.289063 21.503907 37.292969c4.703125 8.152344 1.914062 18.578125-6.230469 23.296875zm0 0" fill="#ff9701" data-original="#FF9701" class=""/><path d="m503.464844 42.667969v68.265625h-494.929688v-68.265625c0-18.851563 15.28125-34.132813 34.132813-34.132813h426.664062c18.851563 0 34.132813 15.28125 34.132813 34.132813zm0 0" fill="#00828e" data-original="#00828E"/><path d="m477.867188 42.667969v68.265625h-469.332032v-68.265625c0-18.851563 15.28125-34.132813 34.132813-34.132813h401.066406c18.851563 0 34.132813 15.28125 34.132813 34.132813zm0 0" fill="#00bbd3" data-original="#00BBD3" class="" style="fill:#69DDFF" data-old_color="#00bbd3"/><path d="m76.800781 59.734375c0 9.425781-7.640625 17.066406-17.066406 17.066406s-17.066406-7.640625-17.066406-17.066406 7.640625-17.066406 17.066406-17.066406 17.066406 7.640625 17.066406 17.066406zm0 0" fill="#f34335" data-original="#F34335"/><path d="m145.066406 59.734375c0 9.425781-7.640625 17.066406-17.066406 17.066406s-17.066406-7.640625-17.066406-17.066406 7.640625-17.066406 17.066406-17.066406 17.066406 7.640625 17.066406 17.066406zm0 0" fill="#ffea3a" data-original="#FFEA3A"/><path d="m213.332031 59.734375c0 9.425781-7.640625 17.066406-17.066406 17.066406s-17.066406-7.640625-17.066406-17.066406 7.640625-17.066406 17.066406-17.066406 17.066406 7.640625 17.066406 17.066406zm0 0" fill="#4cae50" data-original="#4CAE50" class="" style="fill:#04E060" data-old_color="#4cae50"/><path d="m366.933594 68.265625h-85.332032c-4.714843 0-8.535156-3.820313-8.535156-8.53125 0-4.714844 3.820313-8.535156 8.535156-8.535156h85.332032c4.710937 0 8.53125 3.820312 8.53125 8.535156 0 4.710937-3.820313 8.53125-8.53125 8.53125zm0 0" fill="#955ba5" data-original="#955BA5" class=""/><path d="m460.800781 68.265625h-59.734375c-4.710937 0-8.53125-3.820313-8.53125-8.53125 0-4.714844 3.820313-8.535156 8.53125-8.535156h59.734375c4.710938 0 8.53125 3.820312 8.53125 8.535156 0 4.710937-3.820312 8.53125-8.53125 8.53125zm0 0" fill="#955ba5" data-original="#955BA5" class=""/><path d="m102.398438 162.132812h85.335937v273.066407h-85.335937zm0 0" fill="#9d9c24" data-original="#9D9C24" class="" style="fill:#04E060" data-old_color="#9d9c24"/><path d="m102.398438 162.132812h59.734374v273.066407h-59.734374zm0 0" fill="#ccdb39" data-original="#CCDB39" class="active-path" style="fill:#31F583" data-old_color="#ccdb39"/><path d="m332.800781 228.863281-17.066406 29.613281-25.601563 44.285157-18.089843 31.402343-.085938.085938v.085938l-7.421875 12.800781-1.367187 2.386719v.085937l-24.234375 41.898437-5.375 9.304688-9.984375 17.320312h-35.839844v-108.628906l2.898437-5.035156 25.601563-44.371094 25.601563-44.289062 13.394531-23.210938 3.671875-6.398437c4.734375-8.125 15.136718-10.90625 23.296875-6.230469l44.371093 25.597656c8.121094 4.738282 10.902344 15.140625 6.230469 23.296875zm0 0" fill="#fcd734" data-original="#FCD734" class=""/><path d="m298.667969 237.398438-17.066407 29.609374-25.601562 44.289063-18.089844 31.402344-.085937.085937v.085938l-7.425781 12.796875-1.363282 2.390625v.085937l-24.234375 41.898438-5.375 9.300781-5.035156 8.789062h-6.65625v-108.628906l2.898437-5.035156 25.601563-44.371094 25.601563-44.289062 13.394531-23.210938 37.207031 21.503906c8.121094 4.738282 10.902344 15.136719 6.230469 23.296876zm0 0" fill="#ffea3a" data-original="#FFEA3A"/><path d="m443.734375 435.199219v51.199219c-.027344 9.414062-7.652344 17.039062-17.066406 17.066406h-307.203125c-9.414063-.027344-17.035156-7.652344-17.066406-17.066406v-51.199219c.039062-9.246094 7.402343-16.792969 16.640624-17.066407h307.628907c9.414062.027344 17.039062 7.652344 17.066406 17.066407zm0 0" fill="#d74315" data-original="#D74315" class="" style="fill:#F4C6DB" data-old_color="#d74315"/><path d="m418.132812 435.199219v51.199219c-.027343 9.414062-7.652343 17.039062-17.066406 17.066406h-281.601562c-9.414063-.027344-17.035156-7.652344-17.066406-17.066406v-51.199219c.039062-9.246094 7.402343-16.792969 16.640624-17.066407h282.027344c9.414063.027344 17.039063 7.652344 17.066406 17.066407zm0 0" fill="#ff5722" data-original="#FF5722" class="" style="fill:#F4C6DB" data-old_color="#ff5722"/><path d="m153.601562 452.265625c0-4.710937-3.820312-8.53125-8.535156-8.53125-4.710937 0-8.53125 3.820313-8.53125 8.53125-4.714844 0-8.535156 3.820313-8.535156 8.535156 0 4.710938 3.820312 8.53125 8.535156 8.53125 0 4.714844 3.820313 8.535157 8.53125 8.535157 4.714844 0 8.535156-3.820313 8.535156-8.535157 4.710938 0 8.53125-3.820312 8.53125-8.53125 0-4.714843-3.820312-8.535156-8.53125-8.535156zm0 0" fill="#e6e7e8" data-original="#E6E7E8" class=""/><path d="m59.734375 34.132812c-14.140625 0-25.601563 11.460938-25.601563 25.601563 0 14.136719 11.460938 25.597656 25.601563 25.597656 14.136719 0 25.597656-11.460937 25.597656-25.597656 0-14.140625-11.460937-25.601563-25.597656-25.601563zm0 34.132813c-4.714844 0-8.535156-3.820313-8.535156-8.53125 0-4.714844 3.820312-8.535156 8.535156-8.535156 4.710937 0 8.53125 3.820312 8.53125 8.535156 0 4.710937-3.820313 8.53125-8.53125 8.53125zm0 0" data-original="#000000" class=""/><path d="m128 34.132812c-14.136719 0-25.601562 11.460938-25.601562 25.601563 0 14.136719 11.464843 25.597656 25.601562 25.597656s25.601562-11.460937 25.601562-25.597656c0-14.140625-11.464843-25.601563-25.601562-25.601563zm0 34.132813c-4.710938 0-8.535156-3.820313-8.535156-8.53125 0-4.714844 3.824218-8.535156 8.535156-8.535156s8.535156 3.820312 8.535156 8.535156c0 4.710937-3.824218 8.53125-8.535156 8.53125zm0 0" data-original="#000000" class=""/><path d="m196.265625 34.132812c-14.136719 0-25.597656 11.460938-25.597656 25.601563 0 14.136719 11.460937 25.597656 25.597656 25.597656 14.140625 0 25.601563-11.460937 25.601563-25.597656 0-14.140625-11.460938-25.601563-25.601563-25.601563zm0 34.132813c-4.710937 0-8.53125-3.820313-8.53125-8.53125 0-4.714844 3.820313-8.535156 8.53125-8.535156 4.714844 0 8.535156 3.820312 8.535156 8.535156 0 4.710937-3.820312 8.53125-8.535156 8.53125zm0 0" data-original="#000000" class=""/><path d="m366.933594 51.199219h-85.332032c-4.714843 0-8.535156 3.820312-8.535156 8.535156 0 4.710937 3.820313 8.53125 8.535156 8.53125h85.332032c4.710937 0 8.53125-3.820313 8.53125-8.53125 0-4.714844-3.820313-8.535156-8.53125-8.535156zm0 0" data-original="#000000" class=""/><path d="m460.800781 51.199219h-59.734375c-4.710937 0-8.53125 3.820312-8.53125 8.535156 0 4.710937 3.820313 8.53125 8.53125 8.53125h59.734375c4.710938 0 8.53125-3.820313 8.53125-8.53125 0-4.714844-3.820312-8.535156-8.53125-8.535156zm0 0" data-original="#000000" class=""/><path d="m469.332031 0h-426.664062c-23.554688.0273438-42.6406252 19.113281-42.667969 42.667969v307.199219c.0273438 23.550781 19.113281 42.636718 42.667969 42.667968h17.066406c4.710937 0 8.53125-3.824218 8.53125-8.535156s-3.820313-8.535156-8.53125-8.535156h-17.066406c-14.140625 0-25.601563-11.460938-25.601563-25.597656v-230.402344h477.867188v230.402344c0 14.136718-11.460938 25.597656-25.601563 25.597656h-17.066406c-4.710937 0-8.53125 3.824218-8.53125 8.535156s3.820313 8.535156 8.53125 8.535156h17.066406c23.554688-.03125 42.640625-19.117187 42.667969-42.667968v-307.199219c-.027344-23.554688-19.113281-42.6406252-42.667969-42.667969zm-452.265625 102.398438v-59.730469c0-14.140625 11.460938-25.601563 25.601563-25.601563h426.664062c14.140625 0 25.601563 11.460938 25.601563 25.601563v59.730469zm0 0" data-original="#000000" class=""/><path d="m196.265625 179.199219c0-14.136719-11.460937-25.597657-25.597656-25.597657h-51.203125c-14.136719 0-25.597656 11.460938-25.597656 25.597657v307.199219c0 14.140624 11.460937 25.601562 25.597656 25.601562h307.203125c14.136719 0 25.597656-11.460938 25.597656-25.601562v-51.199219c0-14.136719-11.460937-25.597657-25.597656-25.597657h-97.425781l20.667968-11.949218.101563-.042969.050781-.050781 44.246094-25.503906h.042968l29.574219-17.066407c12.222657-7.097656 16.414063-22.730469 9.386719-34.988281l-25.597656-44.375c-3.394532-5.882812-8.984375-10.175781-15.542969-11.933594-6.554687-1.761718-13.546875-.84375-19.425781 2.546875l-77.425782 44.632813 27.785157-48.164063 17.066406-29.558593c3.402344-5.878907 4.328125-12.867188 2.578125-19.429688-1.753906-6.5625-6.042969-12.160156-11.921875-15.558594l-44.371094-25.597656c-5.886719-3.398438-12.878906-4.320312-19.441406-2.558594-6.5625 1.757813-12.15625 6.058594-15.546875 11.945313l-42.667969 73.90625-12.535156 21.777343zm23.09375 92.578125 59.125 34.132812-13.574219 23.476563c-.242187.363281-.457031.746093-.640625 1.144531l-2.832031 4.886719-59.144531-34.132813zm25.597656-44.371094 59.128907 34.132812-17.066407 29.566407-59.128906-34.132813zm54.972657 100.511719 34.132812 59.164062-29.558594 17.066407-31.523437-54.613282 5.308593-9.167968zm44.375-25.597657 34.132812 59.144532-29.5625 17.066406-34.132812-59.152344zm-11.503907 192.613282h-34.132812v-68.265625h34.132812zm17.066407-68.265625h34.132812v68.265625h-34.132812zm-153.601563-17.066407v-32.863281l31.027344 17.917969-8.644531 14.945312zm-76.800781 0c-2.910156.027344-5.796875.558594-8.53125 1.570313v-35.707031h68.265625v34.136718zm-8.53125-187.734374h68.265625v34.132812h-68.265625zm124.894531 157.976562-39.5625-22.808594v-39.484375l56.652344 32.707031zm-56.628906-21.445312h-68.265625v-34.132813h68.265625zm83.960937 8.261718 24.789063 42.941406h-49.585938zm18.441406 60.007813v68.265625h-34.136718v-68.265625zm-102.402343-119.46875h-68.265625v-34.132813h68.265625zm-59.734375-136.53125h51.203125c4.710937 0 8.53125 3.820312 8.53125 8.53125v25.601562h-68.265625v-25.601562c0-4.710938 3.820312-8.53125 8.53125-8.53125zm0 324.265625c-4.710938 0-8.53125-3.820313-8.53125-8.535156v-51.199219c0-4.710938 3.820312-8.53125 8.53125-8.53125h110.933594v68.265625zm315.734375-59.734375v51.199219c0 4.714843-3.820313 8.535156-8.53125 8.535156h-25.601563v-68.265625h25.601563c4.710937 0 8.53125 3.820312 8.53125 8.53125zm-53.921875-154.171875c4.078125-2.285156 9.238281-.910156 11.632812 3.105468l25.597656 44.375c2.363282 4.070313.984376 9.285157-3.078124 11.65625l-22.1875 12.800782-34.132813-59.136719zm-114.996094-90.582032c2.402344-4.015624 7.566406-5.394531 11.648438-3.105468l44.375 25.601562c4.015624 2.402344 5.398437 7.5625 3.113281 11.648438l-12.800781 22.1875-59.125-34.136719zm0 0" data-original="#000000" class=""/><path d="m153.601562 452.265625c0-4.710937-3.820312-8.53125-8.535156-8.53125-4.710937 0-8.53125 3.820313-8.53125 8.53125-4.714844 0-8.535156 3.820313-8.535156 8.535156 0 4.710938 3.820312 8.53125 8.535156 8.53125 0 4.714844 3.820313 8.535157 8.53125 8.535157 4.714844 0 8.535156-3.820313 8.535156-8.535157 4.710938 0 8.53125-3.820312 8.53125-8.53125 0-4.714843-3.820312-8.535156-8.53125-8.535156zm0 0" data-original="#000000" class=""/></g> </svg>
