<svg id="icons" enable-background="new 0 0 64 64" height="512" viewBox="0 0 64 64" width="512" xmlns="http://www.w3.org/2000/svg"><path d="m21 29-5 3v-6z" fill="#ed5565"/><path d="m21 29-5-3v6zm-3.5-6.5c3.59 0 6.5 2.91 6.5 6.5s-2.91 6.5-6.5 6.5-6.5-2.91-6.5-6.5 2.91-6.5 6.5-6.5z" fill="#f5f7fa"/><path d="m30 19v20h-25v-20zm-6 10c0-3.59-2.91-6.5-6.5-6.5s-6.5 2.91-6.5 6.5 2.91 6.5 6.5 6.5 6.5-2.91 6.5-6.5z" fill="#ed5565"/><path d="m30 58.99v.01h-25v-.01-6.99h25z" fill="#5d9cec"/><path d="m59 58.99v.01h-25v-.01-6.99h25z" fill="#ed5565"/><path d="m51 29 8 10h-15.99l3.38-4.22z" fill="#656d78"/><path d="m44 32 2.39 2.78-3.38 4.22h-5.01z" fill="#545c66"/><path d="m59 19v20l-8-10-4.61 5.78-2.39-2.78-6 7h-4v-20zm-18 5.49c0-.82-.67-1.5-1.5-1.5-.82 0-1.5.68-1.5 1.5 0 .83.68 1.5 1.5 1.5.83 0 1.5-.66 1.5-1.5z" fill="#5d9cec"/><path d="m39.5 22.99c.83 0 1.5.68 1.5 1.5 0 .84-.67 1.5-1.5 1.5-.82 0-1.5-.67-1.5-1.5 0-.82.68-1.5 1.5-1.5z" fill="#ffce54"/><path d="m63 9h-62v-2c0-1.11.89-2 2-2h58c1.11 0 2 .89 2 2z" fill="#ccd1d9"/><path d="m30 39v-20h-25v20zm-29-30h62v50h-4v-.01-6.99h-25v6.99.01h-4v-.01-6.99h-25v6.99.01h-4zm33 30h4 5.01 15.99v-20h-25z" fill="#e6e9ed"/><path d="m1 7.998c-.553 0-1-.447-1-1 0-1.654 1.346-3 3-3 .553 0 1 .447 1 1s-.447 1-1 1c-.552 0-1 .448-1 1 0 .553-.447 1-1 1z"/><path d="m63 7.998c-.553 0-1-.447-1-1 0-.552-.448-1-1-1-.553 0-1-.447-1-1s.447-1 1-1c1.654 0 3 1.346 3 3 0 .553-.447 1-1 1z"/><path d="m61 5.998h-58c-.553 0-1-.447-1-1s.447-1 1-1h58c.553 0 1 .447 1 1s-.447 1-1 1z"/><path d="m4.03 7.998c-.553 0-1.005-.447-1.005-1s.442-1 .994-1h.011c.552 0 1 .447 1 1s-.448 1-1 1z"/><path d="m7.029 7.998c-.553 0-1.005-.447-1.005-1s.442-1 .994-1h.011c.552 0 1 .447 1 1s-.448 1-1 1z"/><path d="m10.032 7.998c-.553 0-1.005-.447-1.005-1s.442-1 .994-1h.011c.552 0 1 .447 1 1s-.448 1-1 1z"/><path d="m1 60.002c-.553 0-1-.447-1-1v-52.004c0-.553.447-1 1-1s1 .447 1 1v52.004c0 .553-.447 1-1 1z"/><path d="m63 60.002c-.553 0-1-.447-1-1v-52.004c0-.553.447-1 1-1s1 .447 1 1v52.004c0 .553-.447 1-1 1z"/><path d="m63 9.998h-62c-.553 0-1-.447-1-1s.447-1 1-1h62c.553 0 1 .447 1 1s-.447 1-1 1z"/><path d="m63 60.002h-62c-.553 0-1-.447-1-1s.447-1 1-1h62c.553 0 1 .447 1 1s-.447 1-1 1z"/><path d="m29.998 39.998h-24.997c-.553 0-1-.447-1-1v-19.999c0-.553.447-1 1-1h24.997c.553 0 1 .447 1 1v19.999c0 .553-.447 1-1 1zm-23.997-2h22.997v-17.999h-22.997z"/><path d="m29.998 59.992c-.553 0-1-.447-1-1v-5.994h-22.997v5.994c0 .553-.447 1-1 1s-1-.447-1-1v-6.994c0-.553.447-1 1-1h24.997c.553 0 1 .447 1 1v6.994c0 .553-.447 1-1 1z"/><path d="m58.999 59.992c-.553 0-1-.447-1-1v-5.994h-22.997v5.994c0 .553-.447 1-1 1s-1-.447-1-1v-6.994c0-.553.447-1 1-1h24.997c.553 0 1 .447 1 1v6.994c0 .553-.447 1-1 1z"/><path d="m29.998 42.999h-24.998c-.553 0-1-.447-1-1s.447-1 1-1h24.998c.553 0 1 .447 1 1s-.447 1-1 1z"/><path d="m29.998 45.999h-24.998c-.553 0-1-.447-1-1s.447-1 1-1h24.998c.553 0 1 .447 1 1s-.447 1-1 1z"/><path d="m17 48.999h-12c-.553 0-1-.447-1-1s.447-1 1-1h12c.553 0 1 .447 1 1s-.447 1-1 1z"/><path d="m58.997 42.999h-24.998c-.553 0-1-.447-1-1s.447-1 1-1h24.998c.553 0 1 .447 1 1s-.447 1-1 1z"/><path d="m58.997 45.999h-24.998c-.553 0-1-.447-1-1s.447-1 1-1h24.998c.553 0 1 .447 1 1s-.447 1-1 1z"/><path d="m45.999 48.999h-12c-.553 0-1-.447-1-1s.447-1 1-1h12c.553 0 1 .447 1 1s-.447 1-1 1z"/><path d="m29.998 12.998h-24.998c-.553 0-1-.447-1-1s.447-1 1-1h24.998c.553 0 1 .447 1 1s-.447 1-1 1z"/><path d="m17 15.998h-12c-.553 0-1-.447-1-1s.447-1 1-1h12c.553 0 1 .447 1 1s-.447 1-1 1z"/><path d="m58.997 12.998h-24.998c-.553 0-1-.447-1-1s.447-1 1-1h24.998c.553 0 1 .447 1 1s-.447 1-1 1z"/><path d="m45.999 15.998h-12c-.553 0-1-.447-1-1s.447-1 1-1h12c.553 0 1 .447 1 1s-.447 1-1 1z"/><path d="m16 32.999c-.17 0-.34-.043-.493-.13-.314-.178-.507-.51-.507-.87v-6.002c0-.36.193-.692.507-.87s.698-.173 1.008.013l5.002 3.001c.301.181.485.506.485.857s-.185.677-.485.857l-5.002 3.001c-.159.095-.337.143-.515.143zm1-5.235v2.469l2.059-1.234z"/><path d="m17.501 36.498c-4.136 0-7.5-3.364-7.5-7.5s3.364-7.5 7.5-7.5 7.5 3.364 7.5 7.5-3.364 7.5-7.5 7.5zm0-13c-3.032 0-5.5 2.468-5.5 5.5s2.468 5.5 5.5 5.5 5.5-2.468 5.5-5.5-2.468-5.5-5.5-5.5z"/><path d="m58.999 39.998h-24.997c-.553 0-1-.447-1-1v-19.999c0-.553.447-1 1-1h24.997c.553 0 1 .447 1 1v19.999c0 .553-.447 1-1 1zm-23.997-2h22.997v-17.999h-22.997z"/><path d="m59 40.002c-.294 0-.585-.129-.782-.376l-7.995-10.007c-.345-.432-.274-1.061.157-1.405.433-.346 1.062-.273 1.405.157l7.995 10.007c.345.432.274 1.061-.157 1.405-.185.148-.404.219-.623.219z"/><path d="m43.006 40.002c-.219 0-.438-.071-.623-.219-.432-.345-.502-.974-.157-1.405l7.995-10.007c.345-.431.974-.502 1.405-.157s.502.974.157 1.405l-7.995 10.007c-.197.247-.488.376-.782.376z"/><path d="m46.389 35.776c-.281 0-.562-.118-.759-.35l-2.384-2.781c-.36-.419-.312-1.05.108-1.409.419-.359 1.051-.313 1.409.108l2.384 2.781c.36.419.312 1.05-.108 1.409-.188.163-.42.242-.65.242z"/><path d="m38.004 39.995c-.23 0-.462-.079-.65-.241-.42-.359-.469-.99-.108-1.409l6-7c.359-.421.991-.468 1.409-.108.42.359.469.99.108 1.409l-6 7c-.198.231-.478.349-.759.349z"/><path d="m39.505 26.994c-1.379 0-2.5-1.121-2.5-2.5s1.121-2.5 2.5-2.5 2.5 1.121 2.5 2.5-1.121 2.5-2.5 2.5zm0-3c-.275 0-.5.225-.5.5s.225.5.5.5.5-.225.5-.5-.225-.5-.5-.5z"/></svg>