<?xml version="1.0" encoding="UTF-8"?>
<svg xmlns="http://www.w3.org/2000/svg" xmlns:xlink="http://www.w3.org/1999/xlink" width="38pt" height="38pt" viewBox="0 0 38 38" version="1.1">
<g id="surface1">
<path style=" stroke:none;fill-rule:nonzero;fill:rgb(0%,0%,0%);fill-opacity:1;" d="M 36.609375 15.640625 C 38.464844 17.496094 38.464844 20.503906 36.609375 22.359375 C 34.753906 24.214844 31.746094 24.214844 29.890625 22.359375 C 28.035156 20.503906 28.035156 17.496094 29.890625 15.640625 C 31.746094 13.785156 34.753906 13.785156 36.609375 15.640625 "/>
<path style=" stroke:none;fill-rule:nonzero;fill:rgb(0%,0%,0%);fill-opacity:1;" d="M 22.359375 15.640625 C 24.214844 17.496094 24.214844 20.503906 22.359375 22.359375 C 20.503906 24.214844 17.496094 24.214844 15.640625 22.359375 C 13.785156 20.503906 13.785156 17.496094 15.640625 15.640625 C 17.496094 13.785156 20.503906 13.785156 22.359375 15.640625 "/>
<path style=" stroke:none;fill-rule:nonzero;fill:rgb(0%,0%,0%);fill-opacity:1;" d="M 8.109375 15.640625 C 9.964844 17.496094 9.964844 20.503906 8.109375 22.359375 C 6.253906 24.214844 3.246094 24.214844 1.390625 22.359375 C -0.464844 20.503906 -0.464844 17.496094 1.390625 15.640625 C 3.246094 13.785156 6.253906 13.785156 8.109375 15.640625 "/>
</g>
</svg>
